<svg width="113" height="30" viewBox="0 0 113 30" fill="none" xmlns="http://www.w3.org/2000/svg">
<path d="M1.53 26V3.73H8.364C13.3053 3.73 15.776 5.65667 15.776 9.51C15.776 10.7567 15.4587 11.8333 14.824 12.74C14.1893 13.6467 13.328 14.2133 12.24 14.44C13.5093 14.6213 14.4953 15.1767 15.198 16.106C15.9233 17.0127 16.2973 18.2027 16.32 19.676C16.32 23.892 13.566 26 8.058 26H1.53ZM8.568 22.94C10.064 22.94 11.1293 22.6113 11.764 21.954C12.3987 21.2967 12.716 20.424 12.716 19.336C12.716 18.2253 12.3647 17.4207 11.662 16.922C10.982 16.4233 9.894 16.174 8.398 16.174H5.066V22.94H8.568ZM12.308 9.782C12.308 7.78733 11.0727 6.79 8.602 6.79H5.066V13.114H8.33C10.982 13.114 12.308 12.0033 12.308 9.782ZM18.666 17.942C18.666 15.1993 19.278 13.1253 20.502 11.72C21.726 10.292 23.426 9.578 25.602 9.578C27.778 9.578 29.4553 10.224 30.634 11.516C31.8353 12.7853 32.4587 14.6553 32.504 17.126L32.368 19.642H22.44C22.644 22.09 23.868 23.314 26.112 23.314C27.676 23.314 29.3307 23.0307 31.076 22.464L31.79 25.422C31.0647 25.6713 30.124 25.8867 28.968 26.068C27.812 26.272 26.86 26.374 26.112 26.374C21.148 26.374 18.666 23.5633 18.666 17.942ZM25.738 12.74C24.6727 12.74 23.868 13.0573 23.324 13.692C22.8027 14.304 22.508 15.3353 22.44 16.786H28.73C28.73 14.0887 27.7327 12.74 25.738 12.74ZM34.782 25.252L35.53 22.158C37.6833 22.838 39.3947 23.178 40.664 23.178C41.9333 23.178 42.7947 23.0533 43.248 22.804C43.7013 22.5773 43.928 22.1693 43.928 21.58C43.928 20.9907 43.724 20.5713 43.316 20.322C42.908 20.0727 42.1373 19.812 41.004 19.54C38.76 18.996 37.196 18.3953 36.312 17.738C35.428 17.058 34.986 15.9587 34.986 14.44C34.986 11.1987 37.0713 9.578 41.242 9.578C43.0327 9.578 45.1067 9.87267 47.464 10.462L46.818 13.692C44.574 13.0573 42.84 12.74 41.616 12.74C40.392 12.74 39.5647 12.8533 39.134 13.08C38.726 13.284 38.522 13.6467 38.522 14.168C38.522 14.6893 38.726 15.0747 39.134 15.324C39.5647 15.5507 40.6527 15.902 42.398 16.378C44.1433 16.854 45.424 17.4093 46.24 18.044C47.056 18.656 47.464 19.71 47.464 21.206C47.464 24.6287 45.356 26.34 41.14 26.34C39.168 26.34 37.0487 25.9773 34.782 25.252ZM53.584 9.85L53.652 10.836C55.488 9.99733 56.9273 9.578 57.97 9.578C59.806 9.578 61.1547 10.122 62.016 11.21C62.9 12.2753 63.342 13.9527 63.342 16.242V26H59.84V16.344C59.84 15.256 59.6473 14.406 59.262 13.794C58.8767 13.182 58.276 12.876 57.46 12.876C56.644 12.876 55.386 13.2727 53.686 14.066V26H50.184V9.85H53.584ZM65.994 26V22.872H71.06V12.978H66.266V9.85H74.562V22.872H79.356V26H65.994ZM72.624 7.504C71.944 7.504 71.4 7.3 70.992 6.892C70.6067 6.46133 70.414 5.906 70.414 5.226C70.414 4.546 70.618 4.002 71.026 3.594C71.434 3.186 71.978 2.982 72.658 2.982C73.3607 2.982 73.8933 3.186 74.256 3.594C74.6413 3.97933 74.834 4.52333 74.834 5.226C74.834 5.92867 74.6413 6.484 74.256 6.892C73.8707 7.3 73.3267 7.504 72.624 7.504ZM82.178 26V3.39H85.68V16.344L87.924 16.106C89.1933 14.474 90.304 12.706 91.256 10.802L91.732 9.85H95.54C94.112 12.8647 92.5253 15.3807 90.78 17.398C92.2307 19.4607 93.6927 21.8973 95.166 24.708L95.846 26H91.868C90.7573 23.5973 89.488 21.2967 88.06 19.098L85.68 19.336V26H82.178ZM101.15 26V21.07H106.08V26H101.15Z" fill="#1A1A1A"/>
</svg>
